<svg width="331" height="67" viewBox="0 0 331 67" fill="none" xmlns="http://www.w3.org/2000/svg">
<path d="M98.1273 22.7497C96.6136 18.9866 95.1559 17.5263 93.8664 16.9084V16.1221H104.014V16.9084C102.164 17.5263 102.949 18.9866 104.463 22.7497L107.21 29.4335L109.677 22.8059C111.078 19.0427 110.63 17.3578 108.724 16.9084V16.1221H115.227V16.9084C113.545 17.5263 112.144 19.0427 110.686 22.8059L107.714 30.7814L114.891 48.2491L124.142 22.8059C125.543 19.0427 125.095 17.3578 123.188 16.9084V16.1221H129.692V16.9084C128.01 17.5263 126.608 19.0427 125.263 22.8059L113.433 55.4383H111.415L104.014 37.2967L96.6697 55.4383H94.5392L82.0927 22.8059C80.6911 18.9866 79.2895 17.5263 78 16.9084V16.1221H88.1478V16.9084C86.2976 17.5263 87.0265 18.9866 88.4842 22.8059L98.2955 48.3614L103.454 35.8364L98.1273 22.7497Z" fill="#CC8663"/>
<path d="M142.742 56C136.519 56 129.455 51.5629 129.455 42.464C129.455 32.9158 136.912 26.9621 144.2 26.9621C151.769 26.9621 155.806 32.1856 155.806 37.072H134.557C134.501 37.6899 134.445 38.2515 134.445 38.8694C134.445 46.2271 138.93 51.4506 146.05 51.4506C150.199 51.4506 153.395 49.6532 155.749 47.0134L156.254 47.5751C153.675 51.5067 149.246 56 142.742 56ZM134.613 36.2857H150.143C149.414 31.6801 146.331 28.0293 142.462 27.9731C137.697 27.917 135.286 31.9048 134.613 36.2857Z" fill="#CC8663"/>
<path d="M161.603 55.4383V54.652C163.454 54.0342 163.846 52.3492 163.846 48.3053V18.5372C163.846 15.2234 163.005 14.6618 161.603 14.044V13.2576L169.004 10L169.565 10.4493V48.3053C169.565 52.3492 169.957 54.0342 171.807 54.652V55.4383H161.603Z" fill="#CC8663"/>
<path d="M178.204 55.4383V54.652C180.054 54.0342 180.447 52.3492 180.447 48.3053V18.5372C180.447 15.2234 179.606 14.6618 178.204 14.044V13.2576L185.605 10L186.165 10.4493V48.3053C186.165 52.3492 186.558 54.0342 188.408 54.652V55.4383H178.204Z" fill="#CC8663"/>
<path d="M195.085 55.4383V54.652C196.935 54.0342 197.327 52.3492 197.327 48.3053V28.9841H194.076L194.356 28.0855H197.327C197.72 19.8291 206.298 11.5726 215.717 11.5726C218.071 11.5726 219.697 12.022 219.697 13.1453C219.697 14.3248 218.015 16.9084 215.492 16.9084C212.633 16.9084 210.166 16.1783 206.69 14.8303C205.12 15.6728 203.046 17.1893 203.046 22.9744V28.0855H210.054L209.774 28.9841H203.046V48.3053C203.046 52.3492 203.438 54.0342 205.289 54.652V55.4383H195.085Z" fill="#CC8663"/>
<path d="M228.62 56C221.332 56 213.651 51.6752 213.651 42.127C213.651 33.0281 220.94 26.9621 228.62 26.9621C235.573 26.9621 243.534 31.0623 243.534 40.9475C243.534 50.5519 235.236 56 228.62 56ZM219.258 37.9145C219.258 44.5421 223.182 54.7643 230.583 54.7643C236.077 54.7643 237.871 49.9902 237.871 45.2161C237.871 38.083 232.994 27.3553 225.761 28.0855C220.883 28.591 219.258 33.0842 219.258 37.9145Z" fill="#CC8663"/>
<path d="M250.232 55.4383V54.652C252.082 54.0342 252.474 52.3492 252.474 48.3053V35.3871C252.474 32.0733 251.633 31.5116 250.232 30.8938V30.1074L257.632 26.8498L258.193 27.2991V34.0952C259.034 32.1294 260.492 30.3883 262.286 29.1526C264.36 27.6923 266.491 26.9621 269.182 26.9621C271.088 26.9621 272.77 27.4676 272.77 28.6471C272.77 29.8828 271.536 32.2979 268.957 32.2979C267.388 32.2979 265.257 31.7363 261.669 30.6129C260.267 31.7924 258.361 34.3199 258.193 37.1282V48.3053C258.193 52.3492 258.585 54.0342 260.436 54.652V55.4383H250.232Z" fill="#CC8663"/>
<path d="M287.3 56C283.488 56 281.47 53.5849 281.47 47.5189V28.254H277.881V27.3553L286.291 19.9414H287.188V27.3553H295.878L295.654 28.254H287.188V47.5751C287.188 51.0574 288.478 52.5739 290.945 52.5739C292.178 52.5739 294.084 52.0684 295.934 49.7656L296.495 50.3272C293.524 53.7534 290.664 56 287.3 56Z" fill="#CC8663"/>
<path d="M300.669 55.4383V54.652C302.519 54.0342 302.911 52.3492 302.911 48.3053V18.5372C302.911 15.2234 302.07 14.6618 300.669 14.044V13.2576L308.069 10L308.63 10.4493V32.0171C311.714 29.4896 315.75 26.9621 320.123 26.9621C325.281 26.9621 328.757 29.6581 328.757 36.2295V48.3053C328.757 52.3492 329.15 54.0342 331 54.652V55.4383H320.796V54.652C322.646 54.0342 323.039 52.3492 323.039 48.3053V37.2405C323.039 32.1856 320.852 29.2088 316.703 29.2088C314.068 29.2088 311.658 30.5006 308.63 32.9719V48.3053C308.63 52.3492 309.023 54.0342 310.873 54.652V55.4383H300.669Z" fill="#CC8663"/>
<path d="M39.8043 33.2486L39.7004 34.5868L39.2847 35.925L38.5572 37.1602L37.6218 38.1896L36.4786 39.0131L35.2315 39.6307L33.8805 39.9395H32.5294L31.0744 39.6307L29.8273 39.0131L28.6841 38.1896L27.7487 37.1602L27.0212 35.925L26.6055 34.5868L26.5016 33.2486L26.6055 31.9104L27.0212 30.5722L27.7487 29.337L28.6841 28.3076L29.8273 27.4841L31.0744 26.8665L32.4255 26.5577H33.7765L35.1276 26.8665L36.3747 27.4841L37.5179 28.3076L38.4533 29.337L39.1808 30.5722L39.5965 31.9104L39.8043 33.2486ZM66.202 35.925L40.22 33.2486L66.202 30.5722L66.0981 29.1311L40.1161 31.8075L64.9548 23.6755L64.5391 22.2344L39.7004 30.2634L62.2527 17.2934L61.5252 15.9552L38.869 29.0282L58.3035 11.5289L57.2642 10.3966L37.8297 27.8959L53.211 6.79383L51.9639 5.8674L36.6865 27.0724L47.2871 3.19104L45.9361 2.57342L35.3354 26.4548L40.7397 0.926432L39.2847 0.617621L33.8805 26.146V0H32.4255V26.043L26.9173 0.617621L25.4623 0.926432L30.8665 26.4548L20.2659 2.57342L18.9149 3.19104L29.5155 27.0724L14.2381 5.97034L12.991 6.89677L28.3723 27.9988L8.93779 10.4996L7.89851 11.6319L27.333 29.1311L4.67675 15.9552L3.94925 17.2934L26.5016 30.3664L1.76677 22.2344L1.24713 23.6755L26.0859 31.7046L0.103928 29.0282L0 30.4693L25.9819 33.1457L0 35.822L0.103928 37.2631L26.0859 34.5868L1.24713 42.8217L1.66284 44.2629L26.5016 36.2338L3.94925 49.2038L4.67675 50.4391L27.333 37.3661L7.89851 54.8653L8.93779 55.9977L28.3723 38.4984L12.991 59.7034L14.2381 60.6298L29.6194 39.5278L18.9149 63.3062L20.2659 63.9238L30.8665 40.0424L25.4623 65.5708L26.9173 65.8796L32.3215 40.3513V66.3943H33.7765V40.3513L39.2847 65.8796L40.7397 65.5708L35.3354 40.0424L45.9361 63.8209L47.2871 63.2032L36.6865 39.4248L52.0678 60.5269L53.3149 59.6004L37.9336 38.4984L57.3681 55.9977L58.4074 54.8653L38.9729 37.3661L61.5252 50.4391L62.2527 49.1009L39.5965 36.1308L64.4352 44.1599L64.8509 42.7188L40.0122 34.6897L65.9941 37.3661L66.202 35.925Z" fill="#CC8663"/>
</svg>
